<?xml version="1.0" standalone="no"?>
<!DOCTYPE svg PUBLIC "-//W3C//DTD SVG 20010904//EN"
 "http://www.w3.org/TR/2001/REC-SVG-20010904/DTD/svg10.dtd">
<svg version="1.0" xmlns="http://www.w3.org/2000/svg"
 width="989.000000pt" height="989.000000pt" viewBox="0 0 989.000000 989.000000"
 preserveAspectRatio="xMidYMid meet">
<metadata>
Created by potrace 1.14, written by Peter Selinger 2001-2017
</metadata>
<g transform="translate(0.000000,989.000000) scale(0.100000,-0.100000)"
fill="#000000" stroke="none">
<path d="M4066 5769 c-126 -25 -233 -72 -344 -148 -231 -158 -377 -435 -374
-706 4 -245 99 -458 278 -623 122 -112 303 -206 439 -228 22 -3 59 -9 82 -14
48 -8 194 -6 268 5 125 18 304 94 410 174 106 80 200 194 259 311 63 125 89
239 88 390 -1 410 -309 763 -737 844 -107 20 -260 18 -369 -5z m409 -263 c97
-33 149 -63 137 -80 -10 -12 -209 -316 -282 -430 -38 -58 -46 -66 -55 -52 -5
10 -83 130 -173 269 l-163 251 58 24 c140 59 335 66 478 18z m-510 -511 l188
-280 1 -203 c1 -112 -1 -205 -5 -208 -3 -2 -38 5 -77 16 -312 86 -512 381
-466 683 13 82 39 162 61 188 7 8 13 19 13 23 0 4 14 28 32 52 30 42 33 44 49
27 9 -10 101 -144 204 -298z m894 189 c117 -232 72 -504 -113 -688 -39 -39
-96 -86 -128 -104 -63 -37 -194 -86 -212 -79 -8 3 -11 60 -11 200 l0 195 199
287 c225 326 204 310 265 189z"/>
<path d="M7183 5535 c-28 -6 -63 -19 -77 -29 -21 -13 -26 -14 -26 -2 0 20 -13
22 -135 22 l-110 -1 0 -540 0 -540 125 0 125 0 0 360 c1 343 2 362 21 400 68
131 277 120 352 -19 14 -27 17 -74 19 -376 1 -190 2 -350 2 -355 1 -13 235
-14 247 -2 4 4 8 168 9 365 1 307 3 361 17 387 71 134 293 120 355 -22 15 -33
17 -84 19 -383 1 -190 3 -347 3 -351 1 -3 56 -5 124 -5 l122 1 0 345 c1 190
-2 367 -7 393 -35 229 -294 401 -534 356 -57 -11 -144 -54 -192 -95 l-39 -33
-29 26 c-101 87 -263 128 -391 98z"/>
<path d="M888 5535 c-2 -1 -23 -5 -48 -8 -81 -10 -142 -27 -214 -61 -85 -39
-140 -89 -167 -151 -20 -46 -30 -117 -18 -136 6 -10 263 -14 278 -4 5 2 11 18
14 34 23 115 265 164 440 89 82 -35 87 -82 13 -117 -58 -27 -149 -42 -273 -44
l-103 -2 0 -97 0 -98 108 -1 c190 -2 312 -28 394 -85 147 -102 -24 -241 -307
-250 -223 -7 -371 65 -399 194 -4 17 -13 33 -19 33 -7 1 -74 2 -149 3 l-138 1
0 -41 c0 -153 122 -278 334 -343 229 -70 548 -64 747 15 222 89 331 254 267
405 -22 50 -99 123 -163 155 l-54 26 29 24 c69 59 94 155 60 231 -44 99 -208
192 -385 220 -29 4 -243 12 -247 8z"/>
<path d="M5828 5525 c-2 -2 -25 -6 -53 -9 -113 -15 -227 -64 -299 -127 -123
-108 -141 -304 -39 -411 l26 -27 -47 -54 c-25 -29 -52 -70 -61 -90 -32 -77 -9
-169 55 -219 l31 -25 -38 -28 c-79 -60 -114 -118 -115 -193 -3 -140 119 -229
367 -267 63 -10 152 -13 295 -11 182 3 216 6 305 30 220 57 338 157 349 293 6
86 -26 149 -103 201 -99 68 -211 89 -501 97 -315 8 -370 18 -385 65 -8 25 26
86 46 83 8 -1 48 -8 89 -17 98 -20 300 -16 390 8 153 42 260 119 308 224 32
72 34 158 3 227 -11 26 -21 48 -21 49 0 1 41 2 90 2 l90 -1 1 53 c1 28 2 71 3
94 l1 42 -90 3 c-171 4 -694 11 -697 8z m202 -185 c165 -44 209 -227 76 -318
-99 -68 -309 -60 -389 13 -70 66 -79 166 -20 235 60 71 211 103 333 70z m95
-855 c94 -9 153 -32 170 -66 9 -16 15 -31 15 -34 0 -20 -35 -67 -64 -84 -68
-42 -124 -53 -291 -57 -277 -5 -393 38 -365 136 12 42 26 58 79 91 l44 28 176
-4 c97 -2 203 -7 236 -10z"/>
<path d="M8953 5515 c-205 -55 -367 -217 -413 -414 -11 -48 -16 -194 -7 -231
2 -8 7 -31 11 -50 28 -124 155 -275 283 -336 175 -84 414 -73 552 25 38 27 39
27 36 -11 -2 -18 1 -38 5 -43 9 -11 206 -13 217 -2 8 9 10 1011 2 1035 -5 14
-22 17 -112 18 -116 1 -120 -1 -112 -58 2 -16 2 -28 0 -28 -2 0 -25 14 -50 31
-76 51 -148 72 -260 75 -62 2 -120 -3 -152 -11z m280 -245 c63 -30 138 -114
160 -182 27 -81 27 -120 3 -223 -6 -27 -39 -76 -78 -115 -122 -123 -318 -130
-445 -16 -104 94 -141 262 -83 376 37 73 120 145 200 174 63 23 179 16 243
-14z"/>
<path d="M2417 5514 c-1 -1 -34 -4 -73 -7 -278 -24 -469 -154 -465 -318 2 -93
66 -177 175 -229 64 -30 134 -49 321 -85 19 -4 122 -21 190 -32 98 -15 254
-56 275 -72 72 -53 10 -132 -130 -165 -65 -16 -289 -17 -352 -2 -98 23 -181
89 -200 161 l-11 41 -56 -7 c-31 -4 -85 -10 -121 -13 -36 -4 -84 -9 -107 -12
l-41 -6 18 -54 c36 -103 113 -189 214 -237 135 -66 231 -82 476 -82 251 0 388
29 515 110 133 86 181 190 145 312 -26 85 -151 174 -274 197 -12 2 -39 9 -61
14 -22 6 -52 13 -68 16 -51 9 -142 26 -167 31 -14 3 -65 12 -115 21 -122 21
-123 21 -178 33 -52 12 -126 46 -128 59 0 4 -2 15 -4 24 -6 33 71 81 152 94
69 11 227 11 288 -1 94 -17 145 -50 175 -112 17 -36 30 -51 40 -48 8 2 53 7
100 11 47 4 96 8 110 9 14 2 39 3 57 4 29 1 31 3 27 29 -8 46 -53 129 -91 167
-69 69 -216 123 -378 141 -57 6 -253 12 -258 8z"/>
</g>
</svg>
