<svg width="0" height="0" class="hidden">
  <symbol version="1.1" id="dekker-logo" sodipodiDocname="Dekker-logo_N0220_X_Dekker logo.ai" xmlnsInkscape="http://www.inkscape.org/namespaces/inkscape" xmlnsSodipodi="http://sodipodi.sourceforge.net/DTD/sodipodi-0.dtd" xmlns="http://www.w3.org/2000/svg" xmlnsSvg="http://www.w3.org/2000/svg" viewBox="0 0 1122.52 793.70135">
    <defs id="defs6">
      <clipPath clipPathUnits="userSpaceOnUse" id="clipPath16">
        <path d="M 0,595.276 H 841.89 V 0 H 0 Z" id="path14"></path>
      </clipPath>
    </defs>
    <sodipodi:namedview id="namedview4" pagecolor="#ffffff" bordercolor="#000000" borderopacity="0.25" inkscapeShowpageshadow="2" inkscapePageopacity="0.0" inkscapePagecheckerboard="0" inkscapeDeskcolor="#d1d1d1"></sodipodi:namedview>
    <g id="g8" inkscapeGroupmode="layer" inkscapeLabel="Dekker-logo_N0220_X_Dekker logo" transform="matrix(1.3333333,0,0,-1.3333333,0,793.70133)">
      <g id="g10">
        <g id="g12" clip-path="url(#clipPath16)">
          <g id="g18" transform="translate(276.0205,237.2326)">
            <path d="m 0,0 h -82.71 c -0.955,0 -1.729,0.523 -1.729,1.17 0,0.646 0.774,1.17 1.729,1.17 H 0 C 0.955,2.34 1.729,1.816 1.729,1.17 1.729,0.523 0.955,0 0,0" id="path20"></path>
          </g>
          <g id="g22" transform="translate(652.1826,237.2326)">
            <path d="m 0,0 h -81.724 c -0.944,0 -1.709,0.523 -1.709,1.17 0,0.646 0.765,1.17 1.709,1.17 H 0 C 0.944,2.34 1.709,1.816 1.709,1.17 1.709,0.523 0.944,0 0,0" id="path24"></path>
          </g>
          <g id="g26" transform="translate(274.6426,292.176)">
            <path d="M 0,0 V 96.421 H 59.3 L 49.841,76.089 H 24.76 V 59.901 H 48.836 V 40.255 H 24.76 V 20.615 H 57.826 V 0 Z" id="path28"></path>
          </g>
          <g id="g30" transform="translate(393.4761,344.4719)">
            <path d="M 0,0 26.895,-52.296 H -2.494 l -24.203,51.878 21.299,44.543 h 27.447 z m -51.738,44.125 h 24.76 v -96.421 h -24.76 z" id="path32"></path>
          </g>
          <g id="g34" transform="translate(477.7607,344.4719)">
            <path d="M 0,0 26.892,-52.296 H -2.49 l -24.204,51.878 21.298,44.543 h 27.442 z m -51.739,44.125 h 24.764 v -96.421 h -24.764 z" id="path36"></path>
          </g>
          <g id="g38" transform="translate(510.002,292.176)">
            <path d="M 0,0 V 96.421 H 59.287 L 49.839,76.089 H 24.767 V 59.901 H 48.83 V 40.255 H 24.767 V 20.615 H 57.819 V 0 Z" id="path40"></path>
          </g>
          <g id="g42" transform="translate(216.2671,366.7727)">
            <path d="m 0,0 v -52.658 h 6.046 c 5.159,0 8.827,0.692 11.007,2.072 2.177,1.38 3.888,3.791 5.121,7.231 1.235,3.44 1.851,9.017 1.851,16.73 0,10.211 -1.379,17.201 -4.137,20.97 C 17.124,-1.886 12.549,0 6.155,0 Z m -24.683,21.824 h 36.667 c 7.23,0 13.069,-1.184 17.519,-3.55 4.45,-2.366 8.128,-5.764 11.033,-10.19 2.904,-4.426 5.011,-9.575 6.32,-15.447 1.31,-5.875 1.96,-12.097 1.96,-18.671 0,-10.298 -0.97,-18.286 -2.911,-23.962 -1.947,-5.675 -4.744,-10.339 -8.095,-14.265 -6.453,-7.558 -16.031,-10.336 -25.826,-10.336 h -36.667 z" id="path44"></path>
          </g>
          <g id="g46" transform="translate(603.8682,368.2478)">
            <path d="m 0,0 v -19.693 h 7.074 c 8.46,0 11.371,4.028 11.371,10.539 C 18.445,-2.217 14.704,0 6.94,0 Z m 21.314,-76.072 -9.943,26.849 C 7.63,-39.243 5.414,-39.998 0,-39.998 V -76.072 H -24.811 V 20.379 H 8.46 c 23.882,0 34.089,-10.8 34.089,-26.888 0,-16.634 -5.766,-26.464 -16.074,-29.563 3.483,-2.035 6.801,-5.585 9.158,-10.575 3.192,-6.516 11.181,-22.213 14.38,-29.425 z" id="path48"></path>
          </g>
          <g id="g50" transform="translate(314.3428,248.1164)">
            <path d="m 0,0 c -0.096,1.584 -0.624,7.104 -8.112,7.104 -4.945,0 -8.017,-2.688 -8.017,-6.192 0,-4.513 4.32,-5.761 8.065,-6.528 5.376,-1.105 12.241,-2.593 12.241,-10.033 0,-3.841 -2.545,-10.081 -12.145,-10.081 -6.529,0 -11.953,2.448 -12.721,10.897 l 3.216,0.288 c 0.144,-1.297 0.336,-2.929 1.392,-4.608 2.112,-3.361 5.809,-3.889 7.873,-3.889 4.944,0 9.216,2.448 9.216,7.2 0,5.185 -5.856,6.241 -8.928,6.817 -4.561,0.864 -11.377,2.304 -11.377,9.649 0,4.897 3.696,9.169 10.944,9.169 3.553,0 7.585,-0.816 9.793,-4.081 C 2.929,3.552 3.072,1.68 3.168,0.144 Z" id="path52"></path>
          </g>
          <path d="m 329.173,222.962 h -3.264 v 34.371 h 3.264 z" id="path54"></path>
          <g id="g56" transform="translate(341.6533,257.3332)">
            <path d="m 0,0 19.922,-29.715 h 0.144 V 0 h 2.976 V -34.371 H 19.586 L -0.192,-4.849 h -0.096 v -29.522 h -2.976 l 0,34.371 z" id="path58"></path>
          </g>
          <g id="g60" transform="translate(397.9106,247.0119)">
            <path d="m 0,0 c -0.624,1.729 -2.832,8.209 -10.321,8.209 -5.28,0 -12.673,-3.744 -12.673,-15.169 0,-9.409 4.945,-14.977 12.145,-14.977 8.641,0 10.801,7.296 11.473,9.504 L 3.6,-13.249 c -0.96,-3.168 -3.456,-11.377 -14.257,-11.377 -11.953,0 -15.697,10.129 -15.697,17.714 0,12.001 7.729,17.809 15.793,17.809 9.985,0 12.769,-7.632 13.681,-10.081 z" id="path62"></path>
          </g>
          <g id="g64" transform="translate(428.3418,242.0676)">
            <path d="M 0,0 V -2.88 H -17.33 V -16.226 H 2.064 v -2.879 H -20.594 V 15.266 H 1.393 V 12.385 H -17.33 L -17.33,0 Z" id="path66"></path>
          </g>
          <g id="g68" transform="translate(465.0859,222.9621)">
            <path d="m 0,0 h -6.586 v 24.82 c -2.406,-2.25 -5.242,-3.914 -8.508,-4.992 v 5.977 c 1.719,0.562 3.586,1.629 5.602,3.199 2.015,1.57 3.398,3.402 4.148,5.496 H 0 Z" id="path70"></path>
          </g>
          <g id="g72" transform="translate(489.9766,245.298)">
            <path d="m 0,0 c 0,2.125 -0.488,3.773 -1.465,4.945 -0.976,1.172 -2.105,1.758 -3.387,1.758 -1.218,0 -2.23,-0.48 -3.035,-1.441 -0.804,-0.961 -1.207,-2.535 -1.207,-4.723 0,-2.219 0.438,-3.848 1.313,-4.887 0.875,-1.039 1.969,-1.558 3.281,-1.558 1.266,0 2.332,0.5 3.199,1.5 C -0.434,-3.406 0,-1.937 0,0 m -14.906,-14.391 6.375,0.703 c 0.156,-1.296 0.562,-2.257 1.219,-2.882 0.656,-0.625 1.523,-0.938 2.601,-0.938 1.359,0 2.516,0.625 3.469,1.875 0.953,1.25 1.562,3.844 1.828,7.781 -1.656,-1.921 -3.727,-2.882 -6.211,-2.882 -2.703,0 -5.035,1.043 -6.996,3.129 -1.961,2.085 -2.942,4.8 -2.942,8.144 0,3.484 1.036,6.293 3.106,8.426 2.07,2.133 4.707,3.199 7.91,3.199 3.485,0 6.344,-1.348 8.578,-4.043 2.235,-2.695 3.352,-7.129 3.352,-13.301 0,-6.281 -1.164,-10.812 -3.492,-13.593 -2.329,-2.782 -5.36,-4.172 -9.094,-4.172 -2.688,0 -4.86,0.715 -6.516,2.144 -1.656,1.43 -2.719,3.567 -3.187,6.41" id="path74"></path>
          </g>
          <g id="g76" transform="translate(501.3906,232.0793)">
            <path d="m 0,0 6.375,0.773 c 0.203,-1.625 0.75,-2.867 1.641,-3.726 0.89,-0.86 1.968,-1.289 3.234,-1.289 1.359,0 2.504,0.515 3.434,1.547 0.929,1.031 1.394,2.422 1.394,4.172 0,1.656 -0.445,2.968 -1.336,3.937 -0.89,0.969 -1.976,1.453 -3.258,1.453 -0.843,0 -1.851,-0.164 -3.023,-0.492 l 0.727,5.367 c 1.781,-0.047 3.14,0.34 4.078,1.16 0.937,0.821 1.406,1.911 1.406,3.27 0,1.156 -0.344,2.078 -1.031,2.765 -0.688,0.688 -1.602,1.032 -2.743,1.032 -1.125,0 -2.085,-0.391 -2.882,-1.172 C 7.219,18.016 6.734,16.875 6.562,15.375 l -6.07,1.031 c 0.422,2.078 1.059,3.739 1.91,4.981 0.852,1.242 2.039,2.218 3.563,2.929 1.523,0.711 3.23,1.067 5.121,1.067 3.234,0 5.828,-1.031 7.781,-3.094 1.61,-1.687 2.414,-3.594 2.414,-5.719 0,-3.015 -1.648,-5.422 -4.945,-7.218 1.969,-0.422 3.543,-1.368 4.723,-2.836 1.179,-1.469 1.769,-3.243 1.769,-5.321 0,-3.015 -1.101,-5.586 -3.305,-7.711 -2.203,-2.125 -4.945,-3.187 -8.226,-3.187 -3.109,0 -5.688,0.894 -7.734,2.683 C 1.516,-5.23 0.328,-2.891 0,0" id="path78"></path>
          </g>
          <g id="g80" transform="translate(539.4531,252.0012)">
            <path d="m 0,0 c -0.797,0 -1.508,-0.254 -2.133,-0.762 -0.625,-0.508 -1.109,-1.418 -1.453,-2.73 -0.453,-1.703 -0.68,-4.571 -0.68,-8.602 0,-4.031 0.204,-6.801 0.61,-8.308 0.406,-1.508 0.918,-2.512 1.535,-3.012 0.617,-0.5 1.324,-0.75 2.121,-0.75 0.797,0 1.508,0.254 2.133,0.762 0.625,0.507 1.109,1.418 1.453,2.73 0.453,1.688 0.68,4.547 0.68,8.578 0,4.031 -0.204,6.801 -0.61,8.309 C 3.25,-2.277 2.738,-1.27 2.121,-0.762 1.504,-0.254 0.797,0 0,0 m 0,5.461 c 3.328,0 5.93,-1.188 7.805,-3.563 2.234,-2.812 3.351,-7.476 3.351,-13.992 0,-6.5 -1.125,-11.172 -3.375,-14.015 -1.859,-2.344 -4.453,-3.516 -7.781,-3.516 -3.344,0 -6.039,1.285 -8.086,3.855 -2.047,2.571 -3.07,7.153 -3.07,13.747 0,6.468 1.125,11.125 3.375,13.968 1.859,2.344 4.453,3.516 7.781,3.516" id="path82"></path>
          </g>
        </g>
      </g>
    </g>
  </symbol>
</svg>