<?xml version="1.0" encoding="UTF-8"?>
<!DOCTYPE svg PUBLIC "-//W3C//DTD SVG 1.1//EN" "http://www.w3.org/Graphics/SVG/1.1/DTD/svg11.dtd">
<svg xmlns="http://www.w3.org/2000/svg" version="1.1" width="336px" height="86px" style="shape-rendering:geometricPrecision; text-rendering:geometricPrecision; image-rendering:optimizeQuality; fill-rule:evenodd; clip-rule:evenodd" xmlns:xlink="http://www.w3.org/1999/xlink">
<g><path style="opacity:1" fill="#aed24b" d="M 136.5,14.5 C 159.693,14.1921 170.86,25.5254 170,48.5C 166.078,63.306 156.411,70.9727 141,71.5C 120.587,69.3424 110.92,58.009 112,37.5C 115.273,24.4733 123.44,16.8066 136.5,14.5 Z M 137.5,23.5 C 142.455,23.2393 147.122,24.2393 151.5,26.5C 148.333,31.5 145.167,36.5 142,41.5C 138.376,36.4198 134.876,31.2532 131.5,26C 133.611,25.1553 135.611,24.322 137.5,23.5 Z M 124.5,31.5 C 128.804,37.3209 132.97,43.3209 137,49.5C 137.499,53.4862 137.666,57.4862 137.5,61.5C 130.494,60.4147 125.328,56.7481 122,50.5C 119.517,43.6684 120.351,37.3351 124.5,31.5 Z M 157.5,32.5 C 163.499,41.6373 162.499,50.1373 154.5,58C 151.691,59.7411 148.691,60.9078 145.5,61.5C 145.334,57.4862 145.501,53.4862 146,49.5C 150.339,44.1503 154.172,38.4837 157.5,32.5 Z"/></g>
<g><path style="opacity:0.998" fill="#302c2d" d="M 38.5,42.5 C 36.3926,41.5318 34.0593,41.1984 31.5,41.5C 31.5,39.8333 31.5,38.1667 31.5,36.5C 34.0593,36.8016 36.3926,36.4682 38.5,35.5C 40.5115,34.7717 42.5115,33.9383 44.5,33C 40.5174,30.5645 36.184,29.8978 31.5,31C 30.2899,32.0391 29.2899,33.2058 28.5,34.5C 25.5,34.5 22.5,34.5 19.5,34.5C 19.5,33.1667 19.5,31.8333 19.5,30.5C 21.9383,25.7675 25.9383,23.2675 31.5,23C 37.3388,22.1506 43.0054,22.8173 48.5,25C 54.5556,28.1157 55.889,32.6157 52.5,38.5C 59.551,43.2945 60.2177,48.7945 54.5,55C 51.7846,56.9078 48.7846,58.2411 45.5,59C 39.5,59.6667 33.5,59.6667 27.5,59C 19.2854,57.9509 14.9521,53.4509 14.5,45.5C 17.8984,45.1796 21.2317,45.513 24.5,46.5C 25.6599,49.755 27.9932,51.5884 31.5,52C 36.7339,52.9771 41.7339,52.3104 46.5,50C 49.1667,48.3333 49.1667,46.6667 46.5,45C 43.6898,44.2177 41.0232,43.3844 38.5,42.5 Z"/></g>
<g><path style="opacity:0.476" fill="#9c9a9a" d="M 231.5,23.5 C 228.833,23.5 226.167,23.5 223.5,23.5C 223.5,34.8333 223.5,46.1667 223.5,57.5C 223.5,57.8333 223.5,58.1667 223.5,58.5C 222.505,46.6783 222.172,34.6783 222.5,22.5C 225.713,22.19 228.713,22.5233 231.5,23.5 Z"/></g>
<g><path style="opacity:1" fill="#2d292a" d="M 252.5,34.5 C 251.508,41.9818 251.175,49.6484 251.5,57.5C 248.833,57.5 246.167,57.5 243.5,57.5C 243.935,49.3888 243.435,41.3888 242,33.5C 237.658,30.402 234.158,31.0687 231.5,35.5C 230.508,42.6476 230.175,49.9809 230.5,57.5C 228.167,57.5 225.833,57.5 223.5,57.5C 223.5,46.1667 223.5,34.8333 223.5,23.5C 226.167,23.5 228.833,23.5 231.5,23.5C 237.559,21.5213 243.059,22.5213 248,26.5C 254.636,21.3402 261.469,21.1736 268.5,26C 270.936,28.7066 272.436,31.8733 273,35.5C 273.5,43.1594 273.666,50.8261 273.5,58.5C 270.167,58.5 266.833,58.5 263.5,58.5C 263.666,50.4931 263.5,42.4931 263,34.5C 259.458,30.5803 255.958,30.5803 252.5,34.5 Z"/></g>
<g><path style="opacity:0.999" fill="#2e2a2b" d="M 305.5,24.5 C 307.833,24.5 310.167,24.5 312.5,24.5C 312.5,35.5 312.5,46.5 312.5,57.5C 310.167,57.5 307.833,57.5 305.5,57.5C 305.44,56.9569 305.107,56.6236 304.5,56.5C 294.409,61.1854 285.909,59.1854 279,50.5C 273.934,34.9674 279.434,25.6341 295.5,22.5C 298.662,23.0398 301.662,24.0398 304.5,25.5C 305.107,25.3764 305.44,25.0431 305.5,24.5 Z M 291.5,31.5 C 303.451,31.0786 307.284,36.412 303,47.5C 291.62,53.7793 285.953,50.446 286,37.5C 287.36,34.9774 289.193,32.9774 291.5,31.5 Z"/></g>
<g><path style="opacity:0.358" fill="#a8a7a7" d="M 305.5,24.5 C 307.948,23.5269 310.615,23.1936 313.5,23.5C 313.5,35.1667 313.5,46.8333 313.5,58.5C 310.615,58.8064 307.948,58.4731 305.5,57.5C 307.833,57.5 310.167,57.5 312.5,57.5C 312.5,46.5 312.5,35.5 312.5,24.5C 310.167,24.5 307.833,24.5 305.5,24.5 Z"/></g>
<g><path style="opacity:0.999" fill="#332f30" d="M 97.5,35.5 C 96.2223,35.2178 95.2223,34.5511 94.5,33.5C 88.1318,29.5753 81.7985,29.5753 75.5,33.5C 76.9122,34.8064 78.5789,35.6397 80.5,36C 87.2184,37.077 93.8851,38.4104 100.5,40C 108.5,43.9999 109.5,49.3333 103.5,56C 94.2282,60.6007 84.5615,61.6007 74.5,59C 68.2433,57.7415 64.2433,54.0748 62.5,48C 63.0944,47.5357 63.7611,47.369 64.5,47.5C 67.9387,47.2529 71.272,47.5863 74.5,48.5C 75.343,50.1733 76.6763,51.34 78.5,52C 83.5,52.6667 88.5,52.6667 93.5,52C 94.5,51 95.5,50 96.5,49C 87.1497,46.5479 77.8163,43.8812 68.5,41C 62.4425,34.0658 63.7758,28.7324 72.5,25C 80.8333,23 89.1667,23 97.5,25C 102.668,26.6603 105.335,30.1603 105.5,35.5C 102.833,35.5 100.167,35.5 97.5,35.5 Z"/></g>
<g><path style="opacity:0.997" fill="#312d2e" d="M 204.5,23.5 C 207.962,24.4816 211.629,24.815 215.5,24.5C 215.5,26.1667 215.5,27.8333 215.5,29.5C 213.833,29.5 212.167,29.5 210.5,29.5C 210.263,30.791 210.596,31.791 211.5,32.5C 212.234,41.2933 207.9,46.1266 198.5,47C 193.778,46.9853 189.111,47.1519 184.5,47.5C 184.709,48.086 185.043,48.586 185.5,49C 194.282,49.1623 202.948,50.1623 211.5,52C 217.326,55.813 217.992,60.4796 213.5,66C 207.381,69.6951 200.715,71.1951 193.5,70.5C 186.848,71.1993 180.681,69.866 175,66.5C 172.554,61.6761 173.387,57.5094 177.5,54C 174.02,49.9579 174.354,45.9579 178.5,42C 173.793,32.8914 176.459,26.8914 186.5,24C 192.491,23.5005 198.491,23.3338 204.5,23.5 Z M 190.5,29.5 C 195.936,28.3868 199.936,30.2202 202.5,35C 199.692,40.2289 195.359,41.8955 189.5,40C 185.336,36.0052 185.669,32.5052 190.5,29.5 Z M 187.5,56.5 C 193.198,56.596 198.865,57.096 204.5,58C 206.013,60.4541 205.346,62.1207 202.5,63C 196.833,65 191.167,65 185.5,63C 184.643,62.3109 183.977,61.4776 183.5,60.5C 184.549,58.7844 185.882,57.4511 187.5,56.5 Z"/></g>
<g><path style="opacity:0.58" fill="#7d7b7c" d="M 204.5,23.5 C 208.5,23.5 212.5,23.5 216.5,23.5C 216.5,25.8333 216.5,28.1667 216.5,30.5C 214.219,30.0773 212.552,30.744 211.5,32.5C 210.596,31.791 210.263,30.791 210.5,29.5C 212.167,29.5 213.833,29.5 215.5,29.5C 215.5,27.8333 215.5,26.1667 215.5,24.5C 211.629,24.815 207.962,24.4816 204.5,23.5 Z"/></g>
<g><path style="opacity:0.365" fill="#a7a5a6" d="M 19.5,30.5 C 19.5,31.8333 19.5,33.1667 19.5,34.5C 22.5,34.5 25.5,34.5 28.5,34.5C 25.3752,35.4794 22.0419,35.8128 18.5,35.5C 18.2155,33.5853 18.5489,31.9187 19.5,30.5 Z"/></g>
<g><path style="opacity:0.11" fill="#d3d3d3" d="M 94.5,33.5 C 95.2223,34.5511 96.2223,35.2178 97.5,35.5C 96.791,36.404 95.791,36.7373 94.5,36.5C 94.5,35.5 94.5,34.5 94.5,33.5 Z"/></g>
<g><path style="opacity:0.631" fill="#757273" d="M 38.5,35.5 C 36.3926,36.4682 34.0593,36.8016 31.5,36.5C 31.5,38.1667 31.5,39.8333 31.5,41.5C 34.0593,41.1984 36.3926,41.5318 38.5,42.5C 35.8333,42.5 33.1667,42.5 30.5,42.5C 30.5,40.1667 30.5,37.8333 30.5,35.5C 33.1667,35.5 35.8333,35.5 38.5,35.5 Z"/></g>
<g><path style="opacity:0.86" fill="#3d3a3b" d="M 231.5,35.5 C 231.5,43.1667 231.5,50.8333 231.5,58.5C 228.833,58.5 226.167,58.5 223.5,58.5C 223.5,58.1667 223.5,57.8333 223.5,57.5C 225.833,57.5 228.167,57.5 230.5,57.5C 230.175,49.9809 230.508,42.6476 231.5,35.5 Z"/></g>
<g><path style="opacity:0.59" fill="#6f6d6d" d="M 252.5,34.5 C 252.5,42.5 252.5,50.5 252.5,58.5C 249.287,58.81 246.287,58.4767 243.5,57.5C 246.167,57.5 248.833,57.5 251.5,57.5C 251.175,49.6484 251.508,41.9818 252.5,34.5 Z"/></g>
<g><path style="opacity:0.714" fill="#8e8c8c" d="M 64.5,47.5 C 65.964,46.8401 67.6307,46.5068 69.5,46.5C 71.6397,46.5561 73.3064,47.2227 74.5,48.5C 71.272,47.5863 67.9387,47.2529 64.5,47.5 Z"/></g>
</svg>
