<?xml version="1.0" encoding="UTF-8"?>
<!DOCTYPE svg PUBLIC "-//W3C//DTD SVG 1.1//EN" "http://www.w3.org/Graphics/SVG/1.1/DTD/svg11.dtd">
<svg xmlns="http://www.w3.org/2000/svg" version="1.1" width="298px" height="56px" style="shape-rendering:geometricPrecision; text-rendering:geometricPrecision; image-rendering:optimizeQuality; fill-rule:evenodd; clip-rule:evenodd" xmlns:xlink="http://www.w3.org/1999/xlink">
<g><path style="opacity:1" fill="#fafafa" d="M -0.5,-0.5 C 43.1667,-0.5 86.8333,-0.5 130.5,-0.5C 130.5,-0.166667 130.5,0.166667 130.5,0.5C 113.722,-0.221126 102.889,7.44554 98,23.5C 97.3919,39.9726 104.892,50.6393 120.5,55.5C 80.1667,55.5 39.8333,55.5 -0.5,55.5C -0.5,36.8333 -0.5,18.1667 -0.5,-0.5 Z"/></g>
<g><path style="opacity:1" fill="#fcfcfc" d="M 130.5,0.5 C 130.5,0.166667 130.5,-0.166667 130.5,-0.5C 186.167,-0.5 241.833,-0.5 297.5,-0.5C 297.5,2.83333 297.5,6.16667 297.5,9.5C 294.921,9.08332 292.754,9.74999 291,11.5C 281.25,6.21133 272.917,7.878 266,16.5C 260.579,28.4806 263.746,37.314 275.5,43C 281.052,44.196 286.219,43.3626 291,40.5C 292.754,42.25 294.921,42.9167 297.5,42.5C 297.5,46.8333 297.5,51.1667 297.5,55.5C 261.167,55.5 224.833,55.5 188.5,55.5C 192.576,54.1672 196.41,52.1672 200,49.5C 203.453,41.2564 200.62,36.7564 191.5,36C 185.167,35.6667 178.833,35.3333 172.5,35C 170.893,33.951 170.227,32.451 170.5,30.5C 176.882,31.996 183.216,31.8293 189.5,30C 195.578,28.0096 198.245,23.8429 197.5,17.5C 198.552,15.744 200.219,15.0773 202.5,15.5C 202.5,13.1667 202.5,10.8333 202.5,8.5C 198.5,8.5 194.5,8.5 190.5,8.5C 184.824,8.33391 179.157,8.50058 173.5,9C 163.165,11.9161 160.498,17.9161 165.5,27C 160.799,30.7811 160.466,34.7811 164.5,39C 159.559,42.1657 158.559,46.1657 161.5,51C 164.508,52.6519 167.508,54.1519 170.5,55.5C 157.833,55.5 145.167,55.5 132.5,55.5C 150.776,50.366 158.276,38.366 155,19.5C 150.473,8.48505 142.306,2.15172 130.5,0.5 Z"/></g>
<g><path style="opacity:1" fill="#a7ce3a" d="M 130.5,0.5 C 142.306,2.15172 150.473,8.48505 155,19.5C 158.276,38.366 150.776,50.366 132.5,55.5C 128.5,55.5 124.5,55.5 120.5,55.5C 104.892,50.6393 97.3919,39.9726 98,23.5C 102.889,7.44554 113.722,-0.221126 130.5,0.5 Z"/></g>
<g><path style="opacity:1" fill="#fcfdf8" d="M 119.5,8.5 C 126.149,7.82801 132.482,8.82801 138.5,11.5C 134.803,16.6981 131.303,22.0314 128,27.5C 124.419,22.672 121.085,17.672 118,12.5C 117.516,10.8067 118.016,9.47332 119.5,8.5 Z"/></g>
<g><path style="opacity:1" fill="#221e1f" d="M 23.5,27.5 C 21.7354,26.5386 19.7354,26.2053 17.5,26.5C 17.5,24.8333 17.5,23.1667 17.5,21.5C 20.0593,21.8016 22.3926,21.4682 24.5,20.5C 27.0606,20.5531 29.0606,19.5531 30.5,17.5C 26.2074,14.3417 21.5407,13.8417 16.5,16C 13.5702,19.0509 9.90349,20.2176 5.5,19.5C 5.72138,13.7686 8.72138,10.2686 14.5,9C 19.5,8.33333 24.5,8.33333 29.5,9C 33.2074,9.93582 36.3741,11.7692 39,14.5C 39.9357,17.792 39.4357,20.792 37.5,23.5C 45.9369,28.1633 46.6036,33.6633 39.5,40C 27.2433,46.3084 15.2433,45.9751 3.5,39C 1.50292,36.5084 0.502917,33.675 0.5,30.5C 3.83333,30.5 7.16667,30.5 10.5,30.5C 10.7438,33.2626 12.0771,35.4293 14.5,37C 21.1142,39.2153 27.4475,38.5486 33.5,35C 35.2891,31.0854 33.9558,28.7521 29.5,28C 27.5273,27.5045 25.5273,27.3379 23.5,27.5 Z"/></g>
<g><path style="opacity:1" fill="#221e1f" d="M 238.5,19.5 C 237.508,26.9818 237.175,34.6484 237.5,42.5C 234.833,42.5 232.167,42.5 229.5,42.5C 229.802,34.4441 229.469,26.4441 228.5,18.5C 225.792,16.5643 222.792,16.0643 219.5,17C 218.177,17.8159 217.511,18.9826 217.5,20.5C 216.508,27.6476 216.175,34.9809 216.5,42.5C 214.167,42.5 211.833,42.5 209.5,42.5C 209.5,31.1667 209.5,19.8333 209.5,8.5C 213.868,8.62987 218.202,8.29653 222.5,7.5C 226.717,7.84252 230.55,9.17586 234,11.5C 244.123,4.89054 252.123,6.89054 258,17.5C 258.5,26.1603 258.666,34.8269 258.5,43.5C 255.833,43.5 253.167,43.5 250.5,43.5C 250.666,35.8261 250.5,28.1594 250,20.5C 246.459,14.4734 242.626,14.14 238.5,19.5 Z"/></g>
<g><path style="opacity:1" fill="#211d1e" d="M 297.5,9.5 C 297.5,20.5 297.5,31.5 297.5,42.5C 294.921,42.9167 292.754,42.25 291,40.5C 286.219,43.3626 281.052,44.196 275.5,43C 263.746,37.314 260.579,28.4806 266,16.5C 272.917,7.878 281.25,6.21133 291,11.5C 292.754,9.74999 294.921,9.08332 297.5,9.5 Z"/></g>
<g><path style="opacity:1" fill="#211d1e" d="M 90.5,17.5 C 88.8439,19.0603 86.8439,20.0603 84.5,20.5C 82.0947,19.3129 79.7613,17.8129 77.5,16C 72.8333,15.3333 68.1667,15.3333 63.5,16C 60.8333,17.6667 60.8333,19.3333 63.5,21C 72.2849,22.574 80.9515,24.574 89.5,27C 95.2225,33.1344 94.2225,38.1344 86.5,42C 75.6675,45.622 65.0008,45.2887 54.5,41C 51.9088,38.6425 50.2421,35.8092 49.5,32.5C 52.8717,31.5985 56.205,31.5985 59.5,32.5C 60.4266,35.4695 62.4266,37.3028 65.5,38C 69.8333,38.6667 74.1667,38.6667 78.5,38C 82.4853,36.7257 83.1519,34.7257 80.5,32C 71.211,30.677 62.211,28.3437 53.5,25C 49.8941,18.8873 51.2274,14.2206 57.5,11C 67.2899,8.73645 76.9566,9.06978 86.5,12C 88.4641,13.451 89.7974,15.2843 90.5,17.5 Z"/></g>
<g><path style="opacity:1" fill="#221e1f" d="M 190.5,8.5 C 193.962,9.48164 197.629,9.81497 201.5,9.5C 201.5,11.1667 201.5,12.8333 201.5,14.5C 199.833,14.5 198.167,14.5 196.5,14.5C 196.263,15.791 196.596,16.791 197.5,17.5C 198.245,23.8429 195.578,28.0096 189.5,30C 183.216,31.8293 176.882,31.996 170.5,30.5C 170.227,32.451 170.893,33.951 172.5,35C 178.833,35.3333 185.167,35.6667 191.5,36C 200.62,36.7564 203.453,41.2564 200,49.5C 196.41,52.1672 192.576,54.1672 188.5,55.5C 182.5,55.5 176.5,55.5 170.5,55.5C 167.508,54.1519 164.508,52.6519 161.5,51C 158.559,46.1657 159.559,42.1657 164.5,39C 160.466,34.7811 160.799,30.7811 165.5,27C 160.498,17.9161 163.165,11.9161 173.5,9C 179.157,8.50058 184.824,8.33391 190.5,8.5 Z"/></g>
<g><path style="opacity:1" fill="#7d7b7c" d="M 190.5,8.5 C 194.5,8.5 198.5,8.5 202.5,8.5C 202.5,10.8333 202.5,13.1667 202.5,15.5C 200.219,15.0773 198.552,15.744 197.5,17.5C 196.596,16.791 196.263,15.791 196.5,14.5C 198.167,14.5 199.833,14.5 201.5,14.5C 201.5,12.8333 201.5,11.1667 201.5,9.5C 197.629,9.81497 193.962,9.48164 190.5,8.5 Z"/></g>
<g><path style="opacity:1" fill="#f5f5f5" d="M 174.5,14.5 C 178.182,14.3347 181.848,14.5014 185.5,15C 189.867,19.5018 189.201,23.1685 183.5,26C 177.508,27.6713 173.508,25.6713 171.5,20C 171.863,17.8077 172.863,15.9744 174.5,14.5 Z"/></g>
<g><path style="opacity:1" fill="#fdfdfa" d="M 110.5,15.5 C 114.804,21.3209 118.97,27.3209 123,33.5C 123.499,38.1548 123.666,42.8215 123.5,47.5C 111.414,44.582 105.581,36.9154 106,24.5C 106.986,21.1943 108.486,18.1943 110.5,15.5 Z"/></g>
<g><path style="opacity:1" fill="#f7f6f7" d="M 277.5,15.5 C 289.4,15.7201 293.4,21.3868 289.5,32.5C 282.195,38.5278 276.028,37.5278 271,29.5C 270.333,27.1667 270.333,24.8333 271,22.5C 272.694,19.6424 274.861,17.309 277.5,15.5 Z"/></g>
<g><path style="opacity:1" fill="#fcfdf9" d="M 143.5,16.5 C 148.59,21.5834 149.757,27.5834 147,34.5C 144.533,41.4663 139.7,45.7996 132.5,47.5C 131.338,42.8687 131.172,38.202 132,33.5C 136.339,28.1503 140.172,22.4837 143.5,16.5 Z"/></g>
<g><path style="opacity:1" fill="#817e7f" d="M 90.5,17.5 C 91.404,18.209 91.7373,19.209 91.5,20.5C 89.1667,20.5 86.8333,20.5 84.5,20.5C 86.8439,20.0603 88.8439,19.0603 90.5,17.5 Z"/></g>
<g><path style="opacity:1" fill="#777475" d="M 24.5,20.5 C 22.3926,21.4682 20.0593,21.8016 17.5,21.5C 17.5,23.1667 17.5,24.8333 17.5,26.5C 19.7354,26.2053 21.7354,26.5386 23.5,27.5C 21.1667,27.5 18.8333,27.5 16.5,27.5C 16.5,25.1667 16.5,22.8333 16.5,20.5C 19.1667,20.5 21.8333,20.5 24.5,20.5 Z"/></g>
<g><path style="opacity:1" fill="#575455" d="M 209.5,8.5 C 209.5,19.8333 209.5,31.1667 209.5,42.5C 211.833,42.5 214.167,42.5 216.5,42.5C 216.175,34.9809 216.508,27.6476 217.5,20.5C 217.5,28.1667 217.5,35.8333 217.5,43.5C 214.5,43.5 211.5,43.5 208.5,43.5C 208.172,31.6547 208.505,19.988 209.5,8.5 Z"/></g>
<g><path style="opacity:1" fill="#6f6d6d" d="M 238.5,19.5 C 238.5,27.5 238.5,35.5 238.5,43.5C 235.287,43.81 232.287,43.4767 229.5,42.5C 232.167,42.5 234.833,42.5 237.5,42.5C 237.175,34.6484 237.508,26.9818 238.5,19.5 Z"/></g>
<g><path style="opacity:1" fill="#f5f5f5" d="M 172.5,41.5 C 178.176,41.3339 183.843,41.5006 189.5,42C 193.522,44.6659 193.189,46.9992 188.5,49C 183.167,49.6667 177.833,49.6667 172.5,49C 168.581,46.5069 168.581,44.0069 172.5,41.5 Z"/></g>
</svg>
