<?xml version="1.0" standalone="no"?>
<!DOCTYPE svg PUBLIC "-//W3C//DTD SVG 20010904//EN"
 "http://www.w3.org/TR/2001/REC-SVG-20010904/DTD/svg10.dtd">
<svg version="1.0" xmlns="http://www.w3.org/2000/svg"
 width="1301.000000pt" height="192.000000pt" viewBox="0 0 1301.000000 192.000000"
 preserveAspectRatio="xMidYMid meet">

<g transform="translate(0.000000,192.000000) scale(0.100000,-0.100000)"
fill="#000000" stroke="none">
<path d="M830 1913 c-185 -29 -307 -80 -469 -198 -154 -113 -282 -315 -337
-535 -27 -105 -27 -335 0 -440 55 -220 183 -422 337 -535 146 -106 220 -141
384 -180 323 -78 670 26 906 272 83 86 118 138 173 254 64 138 88 249 88 409
0 160 -24 271 -88 409 -55 116 -90 168 -173 254 -154 160 -327 250 -556 287
-51 9 -219 11 -265 3z m264 -173 c-1 -76 -46 -160 -145 -273 -77 -89 -79 -93
-79 -143 0 -51 3 -59 68 -144 l23 -30 -91 0 -91 0 -16 38 c-25 60 -29 162 -7
208 18 38 115 144 132 144 26 0 110 118 132 185 20 64 29 76 53 73 20 -3 22
-9 21 -58z m659 -661 c30 -16 37 -28 37 -65 0 -53 -5 -54 -247 -54 -133 0
-223 -4 -223 -9 0 -6 9 -25 19 -43 48 -83 66 -272 36 -373 -36 -116 -138 -215
-258 -249 -160 -45 -273 -48 -425 -11 -172 42 -275 128 -326 273 -43 123 -43
281 -1 422 27 87 33 100 57 110 36 14 1304 13 1331 -1z"/>
<path d="M501 942 c-19 -35 -33 -155 -29 -237 8 -145 70 -238 195 -290 69 -29
194 -40 295 -26 171 24 270 95 299 214 22 91 -15 223 -88 315 l-34 42 -314 0
c-294 0 -315 -1 -324 -18z"/>
<path d="M2285 1770 c-13 -25 -15 -106 -15 -587 0 -678 3 -702 97 -851 48 -75
196 -212 229 -212 8 0 25 -7 37 -15 13 -8 61 -24 108 -36 112 -28 233 -23 339
15 41 15 84 29 95 32 11 3 54 31 95 63 97 74 166 174 206 297 25 77 28 104 28
204 0 97 -5 128 -28 200 -60 188 -213 338 -405 396 -71 21 -274 19 -342 -5
-88 -30 -153 -69 -218 -129 l-60 -57 -3 336 c-3 392 0 379 -94 379 -49 0 -55
-2 -69 -30z m778 -668 c34 -16 68 -36 76 -45 7 -9 19 -17 26 -17 16 0 87 -85
113 -135 41 -81 55 -151 49 -254 -6 -123 -25 -180 -86 -261 -204 -268 -603
-227 -753 78 -33 66 -33 69 -33 207 0 140 0 141 34 210 46 93 121 167 213 210
69 33 79 34 186 35 103 0 118 -2 175 -28z"/>
<path d="M7634 1792 c-33 -22 -34 -47 -34 -857 0 -734 2 -809 17 -835 27 -46
84 -49 131 -7 l22 20 0 355 c0 429 4 454 87 539 33 34 77 65 120 86 59 28 81
32 163 35 77 3 107 0 153 -17 74 -25 166 -86 177 -116 5 -13 13 -26 19 -29 6
-4 21 -28 33 -54 21 -45 22 -60 28 -424 5 -370 5 -378 27 -399 31 -31 100 -30
126 2 18 22 18 43 15 425 l-3 401 -44 88 c-58 114 -127 183 -241 238 l-84 42
-139 3 c-93 3 -154 0 -185 -9 -62 -17 -170 -75 -207 -110 -17 -16 -34 -29 -38
-29 -4 0 -7 138 -7 308 0 356 1 352 -78 352 -26 0 -52 -4 -58 -8z"/>
<path d="M6814 1662 c-5 -4 -18 -18 -27 -32 -14 -21 -17 -52 -17 -207 l0 -183
-84 0 c-69 0 -88 -4 -110 -21 -34 -27 -36 -77 -3 -107 20 -19 35 -22 110 -22
l87 0 0 -310 c0 -419 12 -478 122 -594 69 -71 154 -111 258 -120 123 -10 169
13 170 87 0 27 -7 45 -25 62 -21 22 -33 25 -93 25 -121 0 -218 70 -242 176 -5
21 -10 182 -10 357 l0 317 139 0 c172 0 189 9 183 97 -3 41 -47 53 -192 53
l-130 0 0 189 c0 186 0 188 -25 215 -18 19 -34 26 -62 26 -21 0 -43 -4 -49 -8z"/>
<path d="M4170 1267 c-135 -46 -233 -126 -308 -252 -54 -92 -73 -165 -79 -305
-11 -245 62 -411 240 -546 31 -24 62 -44 68 -44 5 0 23 -7 40 -15 49 -26 180
-55 246 -55 87 0 156 15 283 62 80 30 160 99 160 138 0 56 -58 93 -111 70 -23
-10 -34 -16 -89 -51 -86 -55 -257 -76 -353 -43 -170 58 -296 194 -313 337 l-7
56 471 3 c371 2 474 6 484 16 30 30 6 241 -39 342 -62 137 -193 252 -334 294
-84 25 -277 21 -359 -7z m334 -152 c103 -43 187 -137 225 -252 38 -114 80
-103 -379 -103 l-400 0 7 48 c15 117 112 236 248 305 43 21 249 23 299 2z"/>
<path d="M5255 1281 c-52 -22 -50 -3 -50 -607 l0 -563 22 -22 c32 -33 99 -30
130 5 l23 27 0 383 0 382 38 65 c29 48 54 75 99 105 88 60 150 77 264 73 84
-4 102 -8 164 -39 100 -50 105 -54 105 -66 0 -6 12 -21 26 -35 67 -62 74 -111
74 -509 0 -304 2 -341 18 -369 31 -55 104 -61 142 -13 19 23 20 41 20 369 0
427 -10 489 -97 613 -61 88 -149 153 -261 191 -44 15 -83 19 -191 19 -144 0
-186 -9 -263 -57 -21 -13 -41 -23 -46 -23 -4 0 -23 -16 -42 -35 -19 -19 -38
-35 -42 -35 -4 0 -8 22 -8 48 0 38 -5 53 -23 70 -27 25 -73 35 -102 23z"/>
<path d="M9460 1266 c-66 -23 -140 -58 -168 -79 -69 -52 -151 -150 -191 -228
-39 -78 -45 -98 -53 -189 -14 -161 0 -271 50 -375 48 -100 96 -160 172 -218
248 -188 583 -163 795 61 l35 37 0 -75 c0 -83 14 -114 57 -131 34 -13 86 5
102 34 9 17 11 112 9 367 -3 338 -4 347 -28 415 -67 188 -219 332 -409 389
-38 11 -93 16 -180 16 -106 0 -136 -4 -191 -24z m381 -173 c107 -53 189 -140
226 -241 24 -66 28 -91 28 -182 0 -93 -4 -114 -30 -179 -31 -77 -109 -175
-164 -206 -167 -92 -325 -99 -452 -19 -21 13 -42 24 -47 24 -13 0 -98 93 -127
139 -47 75 -65 145 -65 245 0 165 73 304 204 389 86 55 121 65 242 66 109 1
113 0 185 -36z"/>
<path d="M10613 1266 l-28 -24 -3 -329 c-2 -222 0 -351 8 -398 36 -209 132
-343 296 -413 90 -38 157 -52 247 -52 126 0 273 51 352 123 22 20 43 37 46 37
4 0 9 -25 11 -56 6 -66 23 -86 77 -88 29 0 46 6 65 23 l26 24 0 562 c0 550 0
562 -20 583 -40 43 -113 38 -137 -9 -9 -18 -13 -116 -13 -374 0 -383 -4 -421
-56 -497 -39 -57 -57 -72 -134 -112 -137 -69 -258 -70 -399 0 -80 39 -127 90
-162 174 -22 53 -23 69 -28 423 l-6 369 -33 29 c-39 35 -72 37 -109 5z"/>
<path d="M12355 1275 c-175 -55 -265 -164 -265 -320 0 -119 66 -210 193 -271
74 -34 86 -37 267 -75 246 -50 342 -154 265 -285 -20 -33 -40 -50 -90 -75
-126 -62 -306 -50 -449 31 -28 16 -57 39 -64 50 -7 12 -29 28 -48 36 -30 13
-38 13 -67 -2 -41 -22 -47 -30 -47 -81 0 -37 5 -46 48 -83 66 -59 76 -65 171
-99 204 -73 396 -65 567 22 58 30 113 85 145 147 20 38 24 59 23 135 0 77 -4
97 -27 141 -53 102 -171 169 -367 209 -228 46 -245 52 -307 109 -56 51 -57
138 -1 195 59 60 94 71 223 71 103 0 122 -3 168 -25 29 -13 78 -47 110 -75 48
-41 65 -50 96 -50 50 0 76 28 76 81 0 34 -7 46 -50 87 -60 58 -119 93 -203
121 -51 17 -84 21 -194 20 -77 -1 -150 -6 -173 -14z"/>
</g>
</svg>
