<?xml version="1.0" standalone="no"?>
<!DOCTYPE svg PUBLIC "-//W3C//DTD SVG 20010904//EN"
 "http://www.w3.org/TR/2001/REC-SVG-20010904/DTD/svg10.dtd">
<svg version="1.0" xmlns="http://www.w3.org/2000/svg"
 width="200.000000pt" height="29.000000pt" viewBox="0 0 200.000000 29.000000"
 preserveAspectRatio="xMidYMid meet">

<g transform="translate(0.000000,29.000000) scale(0.100000,-0.100000)"
fill="#000000" stroke="none">
<path d="M72 270 c-68 -42 -92 -132 -52 -198 77 -126 273 -74 273 73 0 112
-126 183 -221 125z m79 -40 c-12 -17 -19 -35 -16 -40 3 -6 1 -10 -4 -10 -18 0
-12 30 12 60 29 36 37 28 8 -10z m89 -79 c-33 -6 -35 -8 -32 -42 3 -29 -1 -40
-20 -53 -67 -47 -160 15 -132 88 5 13 24 16 113 15 62 -1 92 -4 71 -8z"/>
<path d="M73 134 c-3 -9 -2 -28 3 -43 8 -22 16 -26 56 -29 39 -3 49 0 58 18 9
17 8 26 -5 46 -13 19 -24 24 -61 24 -32 0 -46 -5 -51 -16z"/>
<path d="M350 165 c0 -99 2 -107 25 -130 18 -19 35 -25 69 -25 38 0 48 5 71
32 23 27 26 39 22 72 -9 67 -75 104 -129 73 l-28 -16 0 49 c0 38 -4 50 -15 50
-12 0 -15 -18 -15 -105z m141 -16 c28 -28 22 -76 -12 -102 -45 -33 -99 -1 -99
58 0 59 69 86 111 44z"/>
<path d="M1165 258 c-3 -8 -4 -66 -3 -129 2 -93 6 -114 18 -114 12 0 16 15 18
65 3 69 16 90 57 90 38 0 55 -30 55 -98 0 -48 3 -62 15 -62 12 0 15 14 15 70
0 56 -4 74 -20 90 -26 26 -66 35 -95 22 -23 -11 -24 -9 -27 30 -3 41 -23 62
-33 36z"/>
<path d="M1040 220 c0 -19 -5 -30 -14 -30 -24 0 -30 -21 -7 -27 18 -5 21 -13
21 -63 0 -63 21 -94 60 -88 28 4 27 22 -2 28 -20 5 -23 13 -26 62 -3 52 -1 57
20 60 30 4 30 22 1 26 -18 3 -23 10 -23 33 0 19 -5 29 -15 29 -10 0 -15 -10
-15 -30z"/>
<path d="M634 190 c-56 -23 -73 -112 -29 -155 28 -29 89 -34 121 -11 26 19 10
32 -22 18 -40 -19 -94 5 -94 42 0 3 31 6 69 6 39 0 72 4 76 10 11 18 -23 80
-50 90 -31 12 -43 12 -71 0z m79 -42 l22 -23 -59 -3 c-32 -2 -61 -1 -64 2 -10
11 31 46 55 46 12 0 33 -10 46 -22z"/>
<path d="M807 194 c-4 -4 -7 -47 -7 -96 0 -67 3 -89 13 -86 7 3 13 28 15 69 3
68 16 89 56 89 40 0 51 -17 56 -86 3 -41 10 -69 18 -72 19 -6 16 127 -3 155
-18 26 -63 37 -97 24 -16 -6 -29 -6 -35 0 -5 5 -12 6 -16 3z"/>
<path d="M1450 193 c-63 -23 -83 -111 -35 -158 26 -27 80 -34 116 -15 13 7 19
7 19 0 0 -5 7 -10 15 -10 20 0 21 100 0 139 -19 38 -75 59 -115 44z m77 -45
c30 -28 29 -63 -3 -94 -44 -45 -104 -14 -104 52 0 58 63 83 107 42z"/>
<path d="M1624 185 c-4 -8 -4 -43 -2 -77 4 -48 9 -65 27 -79 26 -21 91 -25
109 -7 9 9 12 9 12 0 0 -7 7 -12 15 -12 13 0 15 15 13 92 -3 107 -21 126 -26
28 -2 -35 -8 -70 -14 -77 -6 -7 -28 -13 -49 -13 -48 0 -59 18 -59 94 0 54 -14
82 -26 51z"/>
<path d="M1883 188 c-36 -17 -40 -48 -9 -75 15 -13 38 -23 50 -23 13 0 30 -7
37 -16 11 -14 10 -18 -6 -30 -24 -18 -33 -17 -69 1 -35 18 -36 18 -36 0 0 -36
104 -49 133 -17 32 36 11 73 -48 88 -43 10 -58 23 -44 40 14 17 43 18 69 2 29
-18 39 1 11 23 -26 21 -54 23 -88 7z"/>
</g>
</svg>
