<?xml version="1.0" encoding="UTF-8" standalone="no"?>
<!-- Created with Inkscape (http://www.inkscape.org/) -->

<svg
   version="1.1"
   id="svg2"
   width="614.66669"
   height="177.75999"
   viewBox="0 0 614.66669 177.75999"
   sodipodi:docname="logo_PLADOS.eps"
   xmlns:inkscape="http://www.inkscape.org/namespaces/inkscape"
   xmlns:sodipodi="http://sodipodi.sourceforge.net/DTD/sodipodi-0.dtd"
   xmlns="http://www.w3.org/2000/svg"
   xmlns:svg="http://www.w3.org/2000/svg">
  <defs
     id="defs6" />
  <sodipodi:namedview
     id="namedview4"
     pagecolor="#ffffff"
     bordercolor="#000000"
     borderopacity="0.25"
     inkscape:showpageshadow="2"
     inkscape:pageopacity="0.0"
     inkscape:pagecheckerboard="0"
     inkscape:deskcolor="#d1d1d1" />
  <g
     id="g8"
     inkscape:groupmode="layer"
     inkscape:label="ink_ext_XXXXXX"
     transform="matrix(1.3333333,0,0,-1.3333333,0,177.76)">
    <g
       id="g10"
       transform="scale(0.1)">
      <path
         d="M 4591.69,4.14844 V 20.0508 h -127.63 v 95.1682 h 112.37 v 15.941 h -112.37 v 82.738 h 127.63 v 15.942 h -144.5 V 4.14844 Z M 4319.53,73.2305 h -17.15 c -2.9,-33.4219 -27.38,-57 -63.04,-57 -18.77,0 -34.71,6.6797 -47.11,19.4414 -20.37,21.0078 -21.66,54.4297 -21.66,81.4761 0,27.063 0.97,60.153 21.34,81.172 12.08,12.399 27.38,19.399 47.43,19.399 35.66,0 60.14,-23.547 63.04,-56.957 h 17.15 c -3.46,41.699 -35.31,73.187 -80.19,73.187 -21.66,0 -43.93,-8.898 -59.51,-24.48 -24.2,-24.52 -26.45,-60.188 -26.45,-92.321 0,-32.1597 2.25,-68.1089 26.45,-92.6285 C 4195.41,8.94141 4217.68,0 4239.34,0 c 44.88,0 76.73,31.5195 80.19,73.2305 M 4020.97,4.14844 V 229.84 h -16.22 V 30.2383 L 3873.62,229.84 h -18.8 V 4.14844 h 16.55 V 204.031 L 4002.21,4.14844 Z m -297.28,0 V 20.0508 h -127.66 v 95.1682 h 112.37 v 15.941 h -112.37 v 82.738 h 127.66 V 229.84 H 3579.17 V 4.14844 Z M 3430.85,229.84 h -16.87 V 4.14844 h 16.87 z m -163.94,-64.942 c 0,-32.16 -21.65,-49.359 -58.89,-49.359 h -65.87 v 98.68 h 65.87 c 37.24,0 58.89,-17.188 58.89,-49.321 m 17.2,0 c 0,39.133 -26.74,64.942 -76.09,64.942 H 3125.6 V 4.14844 h 16.55 V 100.281 h 78.63 l 44.24,-96.13256 h 18.12 L 3237.32,104.43 c 28.31,7.609 46.79,30.84 46.79,60.468 M 2994.44,4.14844 V 20.0508 h -127.62 v 95.1682 h 112.36 v 15.941 h -112.36 v 82.738 h 127.62 V 229.84 H 2849.95 V 4.14844 Z M 2709.89,163.289 c 0,-35.309 -24.84,-50.598 -57.93,-50.598 h -61.76 v 101.207 h 61.76 c 33.09,0 57.93,-15.257 57.93,-50.609 m 17.19,0 c 0,45.531 -31.85,66.551 -75.12,66.551 h -78.31 V 4.14844 h 16.55 v 92.31246 0.3204 h 61.76 c 43.27,0 75.12,21.0197 75.12,66.5077 M 2452.39,4.14844 2378.23,118.398 2452.39,229.84 h -17.83 l -65.59,-98.68 -65.58,98.68 h -18.12 L 2359.11,118.398 2284.95,4.14844 h 17.84 L 2368.33,105.039 2433.59,4.14844 Z m -271.51,0 V 20.0508 h -127.66 v 95.1682 h 112.37 v 15.941 h -112.37 v 82.738 h 127.66 V 229.84 H 2036.35 V 4.14844 Z m -440.87,0 V 229.84 h -16.23 V 30.2383 L 1592.65,229.84 h -18.79 V 4.14844 h 16.54 V 204.031 L 1721.24,4.14844 Z m -297.28,0 V 20.0508 h -127.66 v 95.1682 h 112.36 v 15.941 h -112.36 v 82.738 h 127.66 V 229.84 H 1298.2 V 4.14844 Z m -292.85,0 V 229.84 h -16.54 v -98.68 h -126.05 v 98.68 H 990.738 V 4.14844 h 16.552 V 114.898 h 126.05 V 4.14844 Z M 863.078,73.2305 h -17.187 c -2.86,-33.4219 -27.379,-57 -63.008,-57 -18.801,0 -34.703,6.6797 -47.106,19.4414 -20.371,21.0078 -21.656,54.4297 -21.656,81.4761 0,27.063 0.965,60.153 21.336,81.172 12.078,12.399 27.375,19.399 47.426,19.399 35.629,0 60.148,-23.547 63.008,-56.957 h 17.187 c -3.5,41.699 -35.308,73.187 -80.195,73.187 -21.66,0 -43.922,-8.898 -59.543,-24.48 -24.195,-24.52 -26.41,-60.188 -26.41,-92.321 0,-32.1597 2.215,-68.1089 26.41,-92.6285 C 738.961,8.94141 761.223,0 782.883,0 c 44.887,0 76.695,31.5195 80.195,73.2305 m -261,140.6675 V 229.84 H 441.969 V 213.898 H 513.59 V 4.14844 h 16.547 V 213.898 Z M 323.242,229.84 H 306.375 V 4.14844 h 16.867 z M 187.328,4.14844 104.879,145.461 179.68,229.84 H 159.309 L 35.1875,90.7383 V 229.84 H 18.3203 V 4.14844 H 35.1875 V 66.8711 L 93.7656,133.059 168.566,4.14844 h 18.762"
         style="fill:#231f20;fill-opacity:1;fill-rule:nonzero;stroke:none"
         id="path12" />
      <path
         d="m 430.188,1076.28 c 0,-80.592 -50.391,-120.905 -139.024,-120.905 H 159.18 v 238.765 h 131.984 c 88.633,0 139.024,-39.27 139.024,-117.86 m 151.105,5.04 c 0,156.14 -102.75,244.81 -282.086,244.81 H 0 v -705.2 h 159.18 v 201.461 h 140.027 c 179.336,0 282.086,94.707 282.086,258.929 M 783.789,620.93 H 1245.18 V 759.953 H 942.934 V 1326.13 H 783.789 Z m 1181.711,0 h 170.26 l -301.25,705.2 h -164.22 l -306.24,-705.2 h 164.22 l 219.61,538.98 z m 852.26,351.562 c 0,-128.945 -86.63,-217.578 -204.5,-217.578 H 2469.2 v 437.226 h 136.99 c 120.9,0 211.57,-89.66 211.57,-219.648 m 162.22,1.039 c 0,208.539 -152.14,352.599 -370.75,352.599 h -299.21 v -705.2 h 293.17 c 222.65,0 376.79,145.062 376.79,352.601 m 731.4,0 c 0,-123.945 -95.71,-220.652 -213.58,-220.652 -117.86,0 -217.61,96.707 -217.61,220.652 0,123.909 98.71,218.609 217.61,218.609 117.87,0 213.58,-94.7 213.58,-218.609 m 163.18,0 c 0,204.499 -163.18,357.639 -378.79,357.639 -215.58,0 -378.8,-152.14 -378.8,-357.639 0,-204.535 163.22,-359.679 378.8,-359.679 215.61,0 378.79,156.144 378.79,359.679 m 669.96,151.099 61.44,131.99 c -70.51,46.31 -169.22,76.55 -267.97,76.55 -163.19,0 -273.01,-80.59 -273.01,-208.54 0,-249.849 375.76,-172.259 375.76,-305.243 0,-43.317 -39.28,-67.512 -104.75,-67.512 -74.55,0 -177.3,41.316 -249.85,105.789 l -63.47,-129.945 c 79.59,-67.512 195.45,-111.828 311.28,-111.828 156.18,0 276.05,74.55 276.05,212.539 1,253.89 -374.76,181.34 -374.76,311.32 0,38.28 36.28,57.43 89.67,57.43 56.4,0 145.06,-28.23 219.61,-72.55"
         style="fill:#231f20;fill-opacity:1;fill-rule:nonzero;stroke:none"
         id="path14" />
      <path
         d="M 2040.36,1082.11 1529,620.219 2112.66,911.777 Z"
         style="fill:#08a14d;fill-opacity:1;fill-rule:nonzero;stroke:none"
         id="path16" />
    </g>
  </g>
</svg>
