<?xml version="1.0" encoding="UTF-8" standalone="no"?>
<!-- Created with Inkscape (http://www.inkscape.org/) -->

<svg
   version="1.1"
   id="svg2"
   width="110.66667"
   height="58.666668"
   viewBox="0 0 110.66667 58.666668"
   sodipodi:docname="Logo_Gessi_vettoriale.eps"
   xmlns:inkscape="http://www.inkscape.org/namespaces/inkscape"
   xmlns:sodipodi="http://sodipodi.sourceforge.net/DTD/sodipodi-0.dtd"
   xmlns="http://www.w3.org/2000/svg"
   xmlns:svg="http://www.w3.org/2000/svg">
  <defs
     id="defs6" />
  <sodipodi:namedview
     id="namedview4"
     pagecolor="#ffffff"
     bordercolor="#000000"
     borderopacity="0.25"
     inkscape:showpageshadow="2"
     inkscape:pageopacity="0.0"
     inkscape:pagecheckerboard="0"
     inkscape:deskcolor="#d1d1d1" />
  <g
     id="g8"
     inkscape:groupmode="layer"
     inkscape:label="ink_ext_XXXXXX"
     transform="matrix(1.3333333,0,0,-1.3333333,0,58.666667)">
    <g
       id="g10"
       transform="scale(0.1)">
      <path
         d="m 271.313,381.797 -53.993,-0.039 c -86.769,0 -161.445,-71.809 -161.445,-163.692 0,-80.246 67.305,-163.7027 150.984,-163.7027 2.18,0 15.684,0.1797 15.704,0.2187 v 136.211 h -83.34 v 48.973 h 132.16 V 5.48047 H 217.055 C 100.883,5.48047 7.65234,101.633 7.65234,218.066 c 0,116.661 93.38666,212.598 209.17966,212.598 h 54.481 v -48.867"
         style="fill:#000000;fill-opacity:1;fill-rule:nonzero;stroke:none"
         id="path12" />
      <path
         d="m 643.77,381.594 c -51.426,0 -41.329,-46.496 -25.547,-73.481 12.754,-21.773 25.371,-42.527 40.058,-66.734 C 689.277,188.074 706.875,138.23 683.613,87.8828 655.371,26.7891 609.551,11.1836 555.859,5.48047 L 555.84,54.3242 c 34.512,3.7344 65,14.4375 83.281,54.3598 32.168,70.273 -74.59,157.031 -83.027,222.886 -9.571,74.719 56.015,99.094 86.914,99.094 h 24.433 l -0.019,-49.07 H 643.77"
         style="fill:#000000;fill-opacity:1;fill-rule:nonzero;stroke:none"
         id="path14" />
      <path
         d="m 291.754,430.664 h 123.699 l 0.266,-48.848 H 341.02 v -31.66 h 41.308 V 301.094 H 341.02 V 54.3242 h 74.433 V 5.48047 H 291.754 V 430.664"
         style="fill:#000000;fill-opacity:1;fill-rule:nonzero;stroke:none"
         id="path16" />
      <path
         d="M 756.777,430.664 756.563,5.48047 h -48.575 l 0.196,425.18353 h 48.593"
         style="fill:#000000;fill-opacity:1;fill-rule:nonzero;stroke:none"
         id="path18" />
      <path
         d="m 520.859,381.594 c -51.445,0 -41.328,-46.496 -25.546,-73.481 12.734,-21.773 25.371,-42.527 40.039,-66.734 C 566.367,188.074 583.965,138.23 560.703,87.8828 532.461,26.7891 486.641,11.1836 432.93,5.48047 V 54.3242 c 34.492,3.7344 65,14.4375 83.281,54.3598 32.168,70.273 -74.59,157.031 -83.027,222.886 -9.586,74.719 56.015,99.094 86.914,99.094 h 24.414 v -49.07 h -23.653"
         style="fill:#000000;fill-opacity:1;fill-rule:nonzero;stroke:none"
         id="path20" />
      <path
         d="m 796.934,430.664 c -14.805,0 -26.211,-11.484 -26.211,-26.211 0,-14.719 11.406,-26.199 26.211,-26.199 14.785,0 26.211,11.48 26.211,26.199 0,14.727 -11.426,26.211 -26.211,26.211 z m 0,-3.73 c 12.675,0 22.129,-9.93 22.129,-22.481 0,-12.539 -9.454,-22.473 -22.129,-22.473 -12.676,0 -22.129,9.934 -22.129,22.473 0,12.551 9.453,22.481 22.129,22.481 z m -5.782,-24.168 h 6.27 l 8.516,-13.457 h 4.375 l -9.004,13.457 c 4.082,0.703 7.597,3.105 7.597,8.457 0,5.425 -3.027,8.386 -9.863,8.386 h -11.621 v -30.3 h 3.73 z m 0,3.172 v 10.5 h 6.836 c 3.653,0 7.188,-0.989 7.188,-5.215 0,-5.149 -4.512,-5.285 -9.082,-5.285 h -4.942"
         style="fill:#000000;fill-opacity:1;fill-rule:nonzero;stroke:none"
         id="path22" />
    </g>
  </g>
</svg>
