<?xml version="1.0" encoding="utf-8"?>
<!-- Generator: Adobe Illustrator 20.1.0, SVG Export Plug-In . SVG Version: 6.00 Build 0)  -->
<svg version="1.1" xmlns="http://www.w3.org/2000/svg" xmlns:xlink="http://www.w3.org/1999/xlink" x="0px" y="0px"
	 viewBox="0 0 963.8 267.8" style="enable-background:new 0 0 963.8 267.8;" xml:space="preserve">
<style type="text/css">
	.st0{fill:#004E9B;}
	.st1{fill:#CE4523;}
</style>
<g id="Laag_1">
	<path d="M119.4,114.8c5.5,0,9.8,1.9,12.8,5.6c2.9,3.1,4.3,7.1,4.3,11.8c0,4.8-1.4,8.8-4.3,12c-3,3.6-7.3,5.4-12.8,5.4h-68
		c-3.3,0-6,1-8.1,2.9c-2.3,2.2-3.4,4.9-3.4,8.1c0,3.3,1.1,6,3.4,8c2.1,2.1,4.8,3.1,8.1,3.1H103c12.6,0.1,23.2,4.6,32,13.6
		c8.9,8.9,13.3,19.6,13.3,32.1c0,11.3-4.1,21.7-12.4,31c-8.5,9.9-18.3,14.8-29.4,14.8H22.9c-5.4,0-9.7-1.9-12.8-5.6
		c-2.9-3.1-4.3-7.1-4.3-11.8c0-4.7,1.4-8.7,4.3-12c3.1-3.5,7.4-5.3,12.8-5.3h80.5c2.9,0,5.3-1.1,7.4-3.4c2.1-2.2,3.1-4.8,3.1-7.7
		c0-3.1-1.1-5.8-3.4-8c-2.1-2.1-4.8-3.1-8-3.1H51.4c-12.8,0-23.6-4.4-32.4-13.3c-9-8.9-13.6-19.7-13.6-32.4
		c0-12.6,4.5-23.4,13.6-32.4c8.9-8.9,19.7-13.4,32.4-13.4H119.4z"/>
	<path d="M290.4,185.9c-4.9,1.9-80.7,32.9-80.7,32.9c1.5,1.4,3.1,2.7,4.9,3.7c6.1,4.2,13,6.5,20.7,6.9h1.3c7.1,0,14-0.7,22-4.9
		c8-4.2,14.2-10.3,18.2-14s6.1-6.6,10.7-7.7c1.3-0.4,2.7-0.6,4-0.6c3.2,0,6.2,0.9,9,2.6c4,2.5,6.5,6,7.6,10.6c0.3,1.5,0.4,3,0.4,4.3
		c0,3.1-0.9,6.1-2.6,8.9c-9.2,12.2-21.6,20.4-29.9,25.2c-11.1,6.3-25.6,9.6-38.3,9.6c-3.6,0-7.2-0.2-10.9-0.6
		c-16.7-2.3-30.8-9.3-42.5-21c-6.5-6.5-11.6-13.9-15.4-22.4c-0.3-0.7-0.6-1.3-0.9-2c-0.3-0.8-0.6-1.5-0.9-2.3
		c-3-8.7-4.6-17.3-4.6-25.8c0-9.7,2-19.3,5.9-28.7c5.7-13.7,14.8-24.6,27.4-32.7c12.1-7.7,25.7-11.9,41-12.7h2.6
		c13.4,0,26.1,4.1,38.1,12.4c12,8.3,19.5,19,22.8,24.5C308.6,166.7,302.3,181.1,290.4,185.9z M242.5,149.8c-2.1-0.3-4.2-0.4-6.3-0.4
		c-13.8,0-24.7,5.9-32.6,17.7c-4.1,5.9-6.3,12.5-6.7,19.8l66.7-27C257.4,154.2,250.4,150.8,242.5,149.8z"/>
	<path d="M365.4,255.7c-15.9-7.8-26.6-18.3-32.1-31.4c-3.5-8.3-5.3-23.7-5.3-46.3L328.1,75c0-4.7,1.7-8.7,5-12.1c3.3-3.3,7.3-5,12-5
		c4.8,0,8.8,1.7,12.1,5.1c3.3,3.3,5,7.3,5,12v103.1c0,1.5-2.1,27.4,4.3,35.8c6.4,8.5,16.8,13.5,31.4,15.1c4.7,0,8.7,1.6,12.1,4.9
		c3.3,3.4,5,7.5,5,12.3s-1.7,8.8-5,12.1c-3.4,3.3-7.5,5-12.1,5C382.9,261.6,372.1,259.1,365.4,255.7z"/>
	<path d="M543.7,114.8c5.5,0,9.8,1.9,12.8,5.6c2.9,3.1,4.3,7.1,4.3,11.8c0,4.8-1.4,8.8-4.3,12c-3,3.6-7.3,5.4-12.8,5.4h-74.1
		c-3.3,0-6,1-8.1,2.9c-2.3,2.2-3.4,4.9-3.4,8.1c0,3.3,1.1,6,3.4,8c2.1,2.1,4.8,3.1,8.1,3.1h51.5c12.6,0.1,23.2,4.6,32,13.6
		c8.9,8.9,13.3,19.6,13.3,32.1c0,11.3-4.1,21.7-12.4,31c-8.5,9.9-18.3,14.8-29.4,14.8h-83.5c-5.4,0-9.7-1.9-12.8-5.6
		c-2.9-3.1-4.3-7.1-4.3-11.8c0-4.7,1.4-8.7,4.3-12c3.1-3.5,7.4-5.3,12.8-5.3h80.5c2.9,0,5.3-1.1,7.4-3.4c2.1-2.2,3.1-4.8,3.1-7.7
		c0-3.1-1.1-5.8-3.4-8c-2.1-2.1-4.8-3.1-8-3.1h-51.1c-12.8,0-23.6-4.4-32.4-13.3c-9-8.9-13.6-19.7-13.6-32.4
		c0-12.6,4.5-23.4,13.6-32.4c8.9-8.9,19.7-13.4,32.4-13.4H543.7z"/>
	<path d="M622.1,246.2c0,4.7-1.7,8.7-5,12c-3.3,3.4-7.4,5.1-12.1,5.1c-4.7,0-8.7-1.7-12-5.1c-3.3-3.3-5-7.3-5-12V131.8
		c0-4.7,1.7-8.7,5-12c3.3-3.4,7.3-5.1,12-5.1c4.8,0,8.8,1.7,12.1,5.1c3.3,3.3,5,7.3,5,12V246.2z"/>
	<path d="M789,120.2c-3.3-3.4-7.4-5.1-12.1-5.1c-4.7,0-8.7,1.7-12,5.1c-3.4,3.3-5.1,7.3-5.1,12v57.1c0,8-2.2,15.4-6.7,22.1
		c-4.6,6.9-10.5,11.8-17.8,14.8c-4.8,2-9.6,3-14.6,3c-5,0-9.8-1-14.6-3c-7.3-3-13.3-8-17.8-14.8c-4.5-6.8-6.7-14.1-6.7-22.1v-57.1
		c0-4.7-1.7-8.7-5.1-12c-3.3-3.4-7.3-5.1-12-5.1c-4.8,0-8.8,1.7-12.1,5.1c-3.3,3.3-5,7.3-5,12v57.1c0,6.3,0.6,11.8,1.9,16.4
		c5.1,19.9,15.6,35,31.4,45.4c11.8,7.8,24.9,11.8,39.3,12.1l0,0.1c0.3,0,0.5,0,0.8,0c0.3,0,0.5,0,0.8,0l0-0.1
		c14.4-0.3,27.5-4.3,39.3-12.1c15.8-10.4,26.3-25.5,31.4-45.4c1.2-4.7,1.9-10.1,1.9-16.4v-57.1C794,127.6,792.3,123.6,789,120.2z"/>
	<path d="M940,114.8c8.1,0,13.7,3.6,16.8,10.7c1,2.4,1.6,4.8,1.6,7.1c0,4.4-1.9,8.4-5.6,12.1l-56,56L868.6,229h72.7
		c4.9,0,8.9,1.6,12.1,4.9c3.3,3.4,5,7.5,5,12.3c0,4.7-1.7,8.7-5,12.1c-3.2,3.3-7.3,5-12.1,5H829c-6,0-10.7-1.9-14.1-5.7
		c-3.1-3.2-4.7-7.3-4.7-12.3c0-0.9,0-1.7,0.1-2.4c0.4-3.1,2.5-6.6,6.4-10.4l55.8-56l27.4-27.4h-72.8c-4.7,0-8.7-1.6-12-4.9
		c-3.4-3.3-5.1-7.4-5.1-12.3c0-4.7,1.7-8.7,5.1-12c3.3-3.4,7.3-5.1,12-5.1H940z"/>
	<g>
		<path class="st0" d="M588.6,70.2c-4.7-4.9-6.9-10.1-6.9-16.7c0-6.5,2.2-11.8,6.7-16.4c4.9-4.7,10.1-6.9,16.7-6.9V4.5
			c-13.3,0-24.9,4.8-34.9,14.5c-9.4,9.7-14.2,21.3-14.2,34.6c0,13.3,4.8,24.9,14.5,34.9c9.7,9.4,21.3,14.2,34.6,14.2V76.9
			C598.5,76.9,593.2,74.7,588.6,70.2z"/>
		<path class="st1" d="M654.1,53.6c0-13.3-4.8-24.9-14.5-34.9C630,9.3,618.3,4.5,605,4.5v25.7c6.5,0,11.8,2.2,16.4,6.7
			c4.7,4.9,6.9,10.1,6.9,16.7c0,6.5-2.2,11.8-6.7,16.4c-4.9,4.7-10.1,6.9-16.7,6.9v25.7c13.3,0,24.9-4.8,34.9-14.5
			C649.3,78.5,654.1,66.8,654.1,53.6z"/>
	</g>
</g>
<g id="Laag_2">
</g>
</svg>
